<svg width="92" height="18" viewBox="0 0 92 18" fill="none" xmlns="http://www.w3.org/2000/svg">
<g clip-path="url(#clip0)">
<path d="M9.54529 14.2104C12.9808 14.2104 15.6361 11.6656 15.6361 8.52633C15.6361 5.58522 13.1414 3.78956 11.4892 3.78956C9.18838 3.78956 7.34408 5.37267 7.08132 7.72289C7.03266 8.15811 6.68096 8.52311 6.23465 8.52C5.49277 8.51478 4.414 8.50856 3.73119 8.51089C3.43719 8.51189 3.19424 8.278 3.20872 7.98989C3.3117 5.95156 4.00685 4.04567 5.3323 2.58167C6.80509 0.954889 8.94995 0 11.4892 0C15.7555 0 19.783 3.801 19.783 8.52633C19.783 13.7584 15.3618 18 9.63605 18C5.55274 18 1.44013 15.3834 0.00422484 11.7253C-0.00094008 11.7118 -0.0021932 11.6971 0.00060368 11.6829C0.0198411 11.5747 0.05775 11.4758 0.0950932 11.3784C0.149411 11.2369 0.202596 11.0984 0.194901 10.939L0.170006 10.4294C0.164286 10.3061 0.196146 10.1839 0.261515 10.0784C0.326883 9.97296 0.422792 9.88902 0.536987 9.83733L0.744525 9.74256C0.860797 9.68979 0.962483 9.61041 1.04105 9.51107C1.11961 9.41173 1.17276 9.29534 1.19604 9.17167C1.26563 8.798 1.60014 8.52633 1.99066 8.52633C2.60059 8.52633 3.13087 8.924 3.33003 9.48933C4.28884 12.2104 5.81313 14.2104 9.54529 14.2104Z" fill="#4A5568"/>
<path d="M85.4908 6.28721C84.7299 6.28721 84.4958 5.84232 84.4958 5.33998C84.4958 4.80898 84.6859 4.39276 85.4908 4.39276C86.2953 4.39276 86.4854 4.80898 86.4854 5.33998C86.4854 5.84221 86.2806 6.28721 85.4908 6.28721ZM71.6033 12.4479V8.75965L70.5332 8.75443V8.32509C70.5332 7.85743 70.9209 7.47898 71.3978 7.48132L71.6033 7.48243V5.91798L73.3148 5.44443V7.48221H74.8657V7.91576C74.8657 8.02661 74.8434 8.13637 74.8001 8.23876C74.7569 8.34116 74.6935 8.43419 74.6137 8.51254C74.5338 8.59089 74.439 8.65303 74.3347 8.69541C74.2304 8.73779 74.1186 8.75958 74.0057 8.75954H73.3148V12.2325C73.3148 12.7672 73.6238 12.955 74.0216 13.0195C74.4905 13.0955 74.8804 13.4284 74.8804 13.8943V14.5288C73.2595 14.5288 71.6032 14.4587 71.6032 12.4479H71.6033Z" fill="#4A5568"/>
<path fill-rule="evenodd" clip-rule="evenodd" d="M37.8341 7.32334C36.1223 7.28023 34.0154 8.34223 34.0154 10.9973C34.0154 13.6092 36.1223 14.6426 37.8341 14.5996C39.5898 14.6426 41.6819 13.6092 41.6819 10.9973C41.6819 8.34223 39.5898 7.28023 37.8341 7.32334V7.32334ZM37.8467 13.2959C36.6031 13.2959 35.7208 12.4071 35.7208 10.9433C35.7208 9.55112 36.6037 8.63412 37.8473 8.63412C39.0908 8.63412 39.9639 9.54934 39.9639 10.9413C39.9639 12.4052 39.0903 13.2959 37.8466 13.2959H37.8467Z" fill="#4A5568"/>
<path d="M46.1783 7.33911C47.6706 7.33911 49.2215 7.74089 49.2215 10.6112V14.4574H48.2674C47.7924 14.4574 47.4073 14.0797 47.4073 13.6137V10.4678C47.4073 9.10444 46.8952 8.58778 46.0027 8.58778C45.5053 8.58778 44.8616 8.96089 44.5543 9.26222V13.6138C44.5542 13.7246 44.5319 13.8344 44.4887 13.9368C44.4454 14.0392 44.3821 14.1322 44.3022 14.2106C44.2224 14.2889 44.1276 14.3511 44.0232 14.3934C43.9189 14.4358 43.8071 14.4576 43.6942 14.4576H42.8279V7.51133H43.7931C43.9595 7.51129 44.121 7.5666 44.2512 7.66824C44.3815 7.76988 44.4728 7.91185 44.5103 8.071C44.9494 7.59744 45.52 7.33911 46.1783 7.33911ZM51.1779 7.499C51.3553 7.49894 51.5283 7.55272 51.6733 7.65297C51.8184 7.75322 51.9283 7.89504 51.988 8.059L53.5545 12.3641L55.1209 8.05911C55.1806 7.89515 55.2905 7.75333 55.4355 7.65307C55.5805 7.55282 55.7536 7.49905 55.9309 7.49911H57.1681L54.6169 13.9083C54.5538 14.0666 54.4436 14.2024 54.3006 14.2982C54.1577 14.3939 53.9886 14.4451 53.8156 14.4451H52.7205L49.9407 7.499H51.1779V7.499Z" fill="#4A5568"/>
<path fill-rule="evenodd" clip-rule="evenodd" d="M63.9322 14.1077C63.3909 14.3229 62.2927 14.6097 61.1516 14.6097C59.1472 14.6097 57.612 13.476 57.612 10.9215C57.612 8.62524 59.1001 7.39746 60.9145 7.39746C63.1535 7.39746 64.1088 8.87179 64.009 10.8788C63.9884 11.2935 63.6205 11.5959 63.1973 11.5959H59.3375C59.4252 12.7154 60.2591 13.3037 61.3563 13.3037C61.7872 13.3037 62.2403 13.2822 62.783 13.1828C63.3588 13.0772 63.9322 13.4791 63.9322 14.0536V14.1077V14.1077ZM62.4596 10.4191C62.5772 9.32068 61.8214 8.71791 60.9145 8.71791C60.0073 8.71791 59.3957 9.3858 59.3375 10.419H62.4596V10.4191Z" fill="#4A5568"/>
<path d="M66.2891 7.51344C66.4479 7.51339 66.6022 7.56572 66.727 7.66203C66.8519 7.75834 66.9402 7.89305 66.9778 8.04455C67.563 7.61388 68.2947 7.34121 68.8065 7.34121C68.8506 7.34121 69.1286 7.34121 69.5675 7.39866V8.14344C69.5675 8.54377 69.2148 8.8481 68.8065 8.8481C68.3386 8.8481 67.6508 9.02033 67.1094 9.32177V14.4596H65.3685V7.51332H66.2891V7.51344ZM86.3686 13.5951V7.49277H85.5023C85.0273 7.49277 84.6422 7.87055 84.6422 8.33655V14.4388H85.5083C85.9835 14.4388 86.3686 14.061 86.3686 13.5951V13.5951ZM88.7229 12.4625V8.77421H87.5671V8.34066C87.5671 7.87466 87.9521 7.49688 88.4272 7.49688H88.7228V5.93266L90.4346 5.45899V7.49688H91.9854V7.93044C91.9854 8.39644 91.6004 8.77421 91.1253 8.77421H90.4346V12.2473C90.4346 12.7819 90.7436 12.9697 91.1416 13.0342C91.6101 13.1103 92 13.4431 92 13.909V14.5434C90.3792 14.5434 88.7229 14.4734 88.7229 12.4625V12.4625ZM25.4608 9.56244C25.4717 6.31466 27.9685 4.49988 30.3644 4.49988C31.6952 4.49988 32.9155 4.78121 33.919 5.48432L33.513 6.03066C33.2414 6.39621 32.7265 6.54143 32.2977 6.3751C31.6924 6.14032 31.1223 6.09077 30.6976 6.09077C28.7372 6.09077 27.2586 7.32632 27.2481 9.56232C27.2586 11.7982 28.7372 13.0517 30.6976 13.0517C31.1223 13.0517 31.6924 13.0021 32.2977 12.7673C32.7265 12.601 33.2414 12.7287 33.513 13.0941L33.919 13.6405C32.9155 14.3437 31.6953 14.625 30.3644 14.625C27.9685 14.625 25.4717 12.8101 25.4608 9.56244ZM77.0031 4.55066C77.4782 4.55066 77.8631 4.92843 77.8631 5.39443V9.26277L81.3842 4.92299C81.4641 4.81652 81.5685 4.72999 81.6888 4.67038C81.8091 4.61076 81.942 4.57972 82.0767 4.57977H83.6406L79.6598 9.51033L83.6407 14.4389H82.0766C81.9419 14.4389 81.809 14.4079 81.6887 14.3482C81.5685 14.2886 81.4641 14.2021 81.3842 14.0957L77.8633 9.7571V13.5951C77.8633 14.0611 77.4782 14.4389 77.0031 14.4389H76.0927V4.55066H77.0031V4.55066Z" fill="#4A5568"/>
</g>
<defs>
<clipPath id="clip0">
<rect width="92" height="18" fill="#4A5568"/>
</clipPath>
</defs>
</svg>